Patient4_TMGait_0pt2_02_right_25_EMG.mot
version=1
nRows=36
nColumns=33
inDegrees=no
endheader
time	1LAddLong	2LGlutMax	3LGlutMed	4LIliopsoas	5LSemiMemb	6LBicFemLong	7LRecFem	8LVastMed	9LVastLat	10LGasMed	11LTibAnt	12lTibPost	13LPeroneusLong	14LSol	15LExtDigLong	16LFlexDigLong	17RAddLong	18RGlutMax	19RGlutMed	20RIliopsoas	21RSemiMemb	22RBicFemLong	23RRecFem	24RVastMed	25RVastLat	26RGasMed	27RTibAnt	28RTibPost	29RPeroneusLong	30RSol	31RExtDigLong	32RFlexDigLong
56.585	0.026855	0.075684	0.036469	0.016022	-0.033875	-0.008392	-0.23453	0.011444	0.1297	0.033264	0.029297	-0.007324	0.040588	-0.11414	0.11902	0.010376	0.012817	0.016174	0.7309	-0.037842	-0.031891	-0.099945	-0.058441	-0.055695	0.025635	0.000305	-0.005341	-0.011749	-0.052338	0.032959	-0.004272	-0.014801
56.586	-0.025482	0.01709	0.005951	0.00412	-0.053101	-0.084229	-0.15915	0.005188	0.24841	0.0383	0.027924	-0.005493	0.03006	-0.070801	0.16861	0.020599	0.005341	-0.04837	0.44632	0.015411	-0.054626	-0.12787	-0.047302	-0.085907	0.03067	0.001831	0.013275	-0.005798	-0.089111	0.003204	-0.006104	-0.01709
56.587	0.023346	0.058289	-0.011444	0.003357	-0.003357	-0.12314	-0.058746	-0.018616	0.23712	0.031891	0.015564	-0.01236	-0.001068	-0.042725	0.16129	0.017242	0.007172	-0.019989	-0.06073	0.040436	-0.02533	-0.027771	-0.031128	-0.072632	0.052185	0.002136	0.05249	-0.00946	-0.22217	-0.020752	-0.006256	-0.01709
56.588	-0.01709	0.054321	0.001373	0.001373	0.024414	-0.085449	0.019073	-0.01358	0.11826	0.035248	0.018616	-0.002441	0.016479	-0.097961	0.51209	0.016632	-0.009003	0.011749	-0.47562	0.056763	-0.026245	0.068665	-0.004883	-0.037994	0.021057	0.000763	0.043182	-0.001678	-0.1474	-0.066376	-0.000916	-0.015259
56.589	0.009613	0.034027	0.016022	0.016174	0.027466	-0.044556	-0.009766	0.004578	0.051117	0.016174	-0.000763	-0.00946	0.038757	-0.091095	0.25177	0.019073	0.006714	-0.002136	-0.3305	0.061188	0.14282	0.10208	0.020905	0.050049	0.013733	0.007782	0.028992	-0.003662	-0.037079	-0.052032	-0.001678	-0.011292
56.59	-0.005188	-0.016174	-0.003204	-0.002289	0.00824	-0.056305	-0.0354	0.00824	0.11154	0.019531	-0.010071	-0.001373	0.043488	-0.079041	-0.14252	0.017853	0.022278	-0.005798	-0.095673	-0.016632	0.003967	0.14725	0.032959	0.072327	0.008087	0.008545	0.070038	-0.001373	-0.018311	-0.070496	-0.002289	-0.018005
56.591	-0.00351	-0.044098	-0.005035	-0.016174	-0.025024	-0.11932	-0.018311	0.014496	0.048676	0.034027	-0.014954	0.001678	0.010223	-0.09552	-0.34027	0.014801	0.016937	-0.10223	0.1857	-0.055389	0.012665	0.031433	0.032654	0.028534	0.002441	0.020599	0.10223	-0.000458	-0.063019	-0.076599	0.000153	-0.014038
56.592	0.005798	0.005951	-0.014801	-0.006256	0.056152	-0.21683	-0.029144	0.01297	-0.10681	0.028229	-0.08316	0.001526	0.02182	-0.074921	-0.16602	0.010834	0.045319	-0.1915	0.19486	-0.079193	0.016937	-0.086212	0.051117	-0.040588	-0.02182	0.00473	0.11978	-0.006714	0.038757	-0.00061	-0.002899	-0.000763
56.593	0.008545	-0.002441	-0.021515	0.016785	0.053406	-0.18417	-0.023956	-0.000458	-0.16357	0.016937	-0.078125	-0.000458	0.018616	-0.029297	-0.082397	0.020447	0.024109	-0.20142	0.14221	-0.05722	0.070953	-0.013733	-0.035553	-0.10986	-0.044403	0.009308	0.082245	-0.000153	0.11444	0.061493	-0.005646	-0.011292
56.594	0.001373	-0.013123	-0.022888	0.010071	0.058899	-0.088654	-0.02182	-0.003052	-0.036926	0.003357	-0.061646	0.005188	0.028229	-0.024109	-0.046234	0.014191	0.024872	-0.070343	0.21027	-0.023651	-0.19012	0.02533	0.010529	-0.027771	-0.002136	-0.036163	-0.046997	-0.002594	0.056915	0.10651	0.001984	-0.017548
56.595	-0.000305	0.034485	-0.055695	0.007782	0.086517	0.029144	0.02182	-0.011292	0.033417	0.002441	-0.033264	0.016022	0.048065	-0.041809	0.018311	0.005188	0.065308	-0.052795	0.10727	0.057526	-0.092621	-0.13107	-0.12054	-0.065918	-0.018005	-0.050659	-0.044861	-0.002136	0.055084	-0.042877	-0.005188	-0.018616
56.596	0.001831	0.025482	-0.15045	-0.017853	0.083923	0.027771	0.011444	-0.008087	-0.031586	0.005646	-0.015717	0.012817	0.032349	-0.085907	0.029755	0.001831	0.11505	-0.06073	-0.043793	0.023956	-0.003204	-0.21881	-0.042877	-0.16556	-0.042572	-0.03067	0.042572	-0.003662	0.21011	-0.059509	-0.003662	-0.012054
56.597	0.003357	0.076904	-0.26627	0.009918	0.029297	0.030365	-0.026855	0.000305	-0.13992	0.021515	0.010071	0.017242	0.008545	-0.067291	0.039063	0.003815	0.070343	-0.07309	-0.28778	0.034943	-0.42969	0.012207	-0.1651	-0.1445	-0.03418	-0.009155	0.053101	0.000153	0.074005	-0.16068	0.002136	-0.009766
56.598	0.014954	0.09964	-0.20676	0.023041	-0.013885	0.027161	-0.068359	0.015411	-0.16983	0.022278	0.004883	0.019531	-0.009613	-0.041504	0.039673	-0.002136	-0.056458	-0.088348	-0.083923	0.051422	-0.551	0.20996	-0.26932	0.061493	0.050201	0.003052	0.046387	-0.005035	-0.10284	-0.16556	-0.001068	-0.012817
56.599	0.021515	0.061646	0.25513	0.014343	-0.051422	0.033417	-0.078278	0.015869	-0.12146	0.018616	0.011292	0.022888	-0.025482	-0.050507	0.044403	-0.017395	-0.084686	-0.075073	-0.051422	0.027466	0.013428	0.018768	-0.10284	0.13702	0.030518	0.029449	-0.027771	-0.009613	-0.038452	-0.26184	-0.00351	-0.01358
56.6	0.029755	0.047913	0.29526	0.011292	-0.040131	0.080109	-0.026245	0.00473	-0.04776	0.015106	0.013275	0.021973	0.042572	-0.050049	0.10696	-0.020752	-0.082397	-0.058441	0.40359	0.009918	-0.068359	-0.067291	-0.13031	0.17838	-0.041351	0.070648	0.019531	0.008087	-0.12741	-0.25879	0.000763	-0.014191
56.601	0.040741	-0.027924	0.17319	0.005341	0.079956	0.10208	-0.02182	-0.005493	-0.003662	0.023193	0.001526	0.032043	0.06134	-0.084839	0.075531	-0.018158	-0.061035	-0.041199	0.56442	0.019226	0.017548	-0.039215	-0.16174	0.15671	-0.091858	0.037689	0.055695	-0.001831	-0.14954	-0.17624	0.001831	-0.017853
56.602	0.036163	-0.007782	0.15228	-0.006256	0.10101	0.10056	-0.012054	-0.014648	0.020447	0.010986	0.009918	0.027924	0.050964	-0.06897	0.045013	-0.018005	-0.055847	-0.091248	0.30243	0.02594	0.40054	0.088348	-0.15152	0.13214	-0.093842	-0.011444	0.073242	-0.002289	0.004578	-0.23941	-0.00351	-0.015259
56.603	0.017242	0.055847	0.11887	-0.015259	0.065765	0.045929	0.018311	-0.020905	0.040436	0.039978	0.011139	0.042267	0.059204	-0.020447	0.032806	-0.024261	-0.041504	-0.02594	0.13794	-0.005035	0.34424	0.1651	-0.11505	0.10513	-0.086517	-0.023193	0.028229	0.000458	0.13153	-0.15915	0.00061	-0.018158
56.604	-0.013885	0.070953	0.092316	0.010681	0.014648	0.046387	0.056915	-0.02243	0.026093	0.038452	0.011902	0.032654	0.099792	-0.024414	0.034637	-0.027313	-0.035095	-0.12283	0.065002	-0.046234	0.25101	0.09491	-0.11887	0.036469	-0.086212	-0.028687	-0.016785	-0.018616	0.2652	0.021057	-0.009155	-0.016785
56.605	-0.014343	0.054474	0.074005	0.010071	-0.060577	0.10925	0.0383	-0.006714	0.024719	0.02121	0.010986	0.0354	0.1033	-0.028381	0.027771	-0.029144	-0.03067	-0.06958	0.12863	-0.093994	0.11871	-0.022888	-0.084839	0.015411	-0.07309	-0.002441	-0.030975	-0.006256	0.36774	0.30228	-0.002747	-0.018005
56.606	-0.024719	0.087891	0.026855	0.028534	-0.11261	0.1358	0.007477	-0.000153	0.062256	0.024567	0.020905	0.034637	0.033722	-0.036011	0.032196	-0.035095	-0.026703	-0.009918	0.11353	-0.05661	0.061951	-0.06134	-0.11246	0.041046	-0.012817	0.003357	0.000916	0.044098	0.27664	0.66834	-0.002594	-0.014954
56.607	-0.023651	0.063782	0.007477	-0.003662	-0.13275	0.14526	0.008545	0.00351	0.04303	0.020599	0.011444	0.033875	-0.016479	-0.03479	0.014801	-0.020752	-0.00412	0.00885	-0.020447	-0.046844	0.04425	-0.02182	0.039063	0.007782	0.15167	-0.015411	0.007782	0.016327	0.059509	0.54459	-0.006561	-0.012207
56.608	-0.018768	0.03067	-0.030212	0.006714	-0.12497	0.16449	-0.00412	-0.009308	0.027313	0.016174	0.007019	0.032196	-0.034943	-0.015411	0.017548	-0.028076	0.014496	-0.028992	0.10803	0.063171	0.041199	0.021362	0.033875	-0.052185	0.19348	-0.001526	0.027771	-0.010529	-0.072327	0.41733	-0.00473	-0.008392
56.609	0.007172	-0.040741	-0.083466	0.008392	0.017853	0.073242	-0.045471	-0.014343	0.053253	0.018005	-0.001373	0.038452	-0.11108	-0.047607	0.009308	-0.01236	0.030518	0.013885	0.17792	0.09613	0.046082	-0.000763	0.032654	-0.17868	0.07431	0.012817	0.056458	-0.00885	-0.18082	0.11047	0	-0.009766
56.61	0.01297	-0.015564	-0.057678	-0.003357	0.14221	0.059204	-0.02655	-0.024414	0.070343	-0.001221	0.006256	0.032806	-0.10315	-0.015259	0.010529	-0.024719	0.018616	-0.000458	0.1416	0.12878	0.082397	-0.000763	-0.009003	-0.18829	0.071411	0.014496	0.063019	-0.005035	-0.25513	-0.21301	-0.006561	-0.013733
56.611	0.010529	-0.027771	-0.040131	-0.000153	0.06546	0.10803	0.000153	-0.008545	0.038757	-0.011597	-0.001373	0.036469	-0.077515	0.003204	0.02182	-0.012817	0.032501	0.046234	0.32227	0.072327	0.077515	0.028076	0.023956	-0.19363	0.14969	-0.002899	0.061951	0.004578	-0.28549	-0.20264	-0.00473	-0.003662
56.612	0.020447	-0.01297	-0.028534	0.001831	0.037994	0.15717	-0.032349	-0.006561	-0.010681	0.005951	0.023346	0.036774	-0.025635	0.004272	-0.020905	-0.007324	0.030823	0.016785	0.31174	0.050354	0.055237	0.077972	0.24017	-0.22034	0.37247	-0.035858	0.044861	0.004578	-0.24094	-0.08667	-0.007172	-0.004883
56.613	0.019684	0.034027	-0.035095	-0.002899	0.018005	0.0177	-0.013275	-0.007477	-0.006866	0.007935	0.016479	0.034332	0.1709	0.03952	-0.00885	-0.018768	0.018311	-0.032349	0.14099	0.028687	0.10635	0.023499	0.19134	-0.21668	0.31296	-0.022278	0.044861	0.001984	-0.048523	-0.12375	-0.007782	-0.009918
56.614	0.006409	0.011749	-0.069427	0.018768	0.001526	0.026245	-0.034943	-0.009918	0.00473	0.02243	0.021362	0.032959	0.050201	-0.013428	-0.040436	-0.009766	0.000153	-0.023804	0.073853	0.02182	0.16129	-0.017548	0.063477	-0.15274	0.1889	-0.004883	0.028839	0	0.2359	-0.22079	0.002899	-0.010834
56.615	0.011139	0.01297	-0.11658	0.005646	0.038757	0.066833	-0.080109	-0.00473	-0.024261	0.022278	0.029144	0.031586	-0.10086	-0.039825	-0.04364	-0.014343	-0.01709	0.031433	0.1207	-0.026093	-0.022583	-0.006104	-0.001068	0.016937	0.12543	0.006409	0.018311	-0.006409	0.3717	-0.37903	0.001526	-0.017548
56.616	0.014648	-0.005951	-0.12848	0.011292	0.092621	-0.006256	-0.1062	-0.009613	-0.006409	0.025177	0.032196	0.0383	-0.12283	-0.049591	-0.051727	-0.006561	-0.021362	0.033112	0.061646	-0.1471	-0.31479	0.033417	-0.081482	0.30762	-0.062866	0.00885	0.013123	0.00351	0.28366	-0.25818	-0.000916	-0.01709
56.617	0.023499	-0.027008	-0.11047	-0.005493	0.056763	0.037689	-0.082855	-0.008698	0.00946	0.010376	0.010834	0.025024	0.018005	-0.014496	-0.041504	-0.005951	0.014648	0.093079	0.059357	-0.17303	-0.34729	0.020294	-0.048218	0.2504	-0.42358	0.000763	0.012665	-0.001373	0.12878	0.090942	-0.003357	-0.006866
56.618	0.016479	-0.087128	-0.051117	0.003357	-0.008545	0.084686	-0.080109	-0.002899	0.020599	0.003967	-0.006866	0.025024	0.074463	-0.008392	-0.012665	-0.006409	0.03479	0.11276	0.020294	-0.050507	-0.15121	0.025635	-0.03952	0.11948	-0.24231	0.005798	0.015259	0.003204	0.047607	0.095978	-0.003357	-0.014191
56.619	-0.001984	-0.13214	-0.050659	0.012817	-0.019073	0.069733	-0.008545	0.005493	0.026855	0.013428	-0.023651	0.018158	0.028381	-0.010986	-0.003357	-0.007782	0.000763	0.13412	-0.029449	0.086365	0.083466	0.001678	-0.06897	0.12634	-0.11475	0.002899	0.010376	0.008392	0.06485	-0.044403	-0.002441	-0.013275
56.62	0.007324	-0.11322	-0.026093	0.005188	-0.023041	0.072937	-0.046234	0.001984	0.065155	0.019379	-0.01236	0.012512	0.026245	-0.032959	-0.000763	-0.014191	-0.050964	0.098267	0.065155	0.13428	0.27481	-0.019379	-0.066528	0.054626	-0.028229	0.005798	0.019989	0.010834	0.045776	-0.3363	-0.005493	-0.007935
